<svg width="25" height="25" viewBox="0 0 25 25" fill="none" xmlns="http://www.w3.org/2000/svg">
<g clip-path="url(#clip0)">
<path d="M24.6945 23.2216L17.5852 16.1123C18.9623 14.4113 19.7915 12.2499 19.7915 9.89575C19.7915 4.43956 15.3519 0 9.8957 0C4.43951 0 0 4.43951 0 9.8957C0 15.3519 4.43956 19.7915 9.89575 19.7915C12.2499 19.7915 14.4113 18.9623 16.1123 17.5852L23.2216 24.6945C23.4248 24.8977 23.6914 24.9998 23.9581 24.9998C24.2248 24.9998 24.4915 24.8977 24.6946 24.6945C25.1019 24.2873 25.1019 23.6289 24.6945 23.2216ZM9.89575 17.7081C5.58745 17.7081 2.08333 14.204 2.08333 9.8957C2.08333 5.5874 5.58745 2.08328 9.89575 2.08328C14.2041 2.08328 17.7082 5.5874 17.7082 9.8957C17.7082 14.204 14.204 17.7081 9.89575 17.7081Z" fill="black"/>
</g>
<defs>
<clipPath id="clip0">
<rect width="25" height="25" fill="white"/>
</clipPath>
</defs>
</svg>
