<svg width="32" height="21" viewBox="0 0 32 21" fill="none" xmlns="http://www.w3.org/2000/svg">
<path d="M11.8655 18.4955L30.0868 0.274271C30.2628 0.0984825 30.5015 -0.000175581 30.7502 2.34583e-07C30.999 0.00017605 31.2375 0.0991717 31.4133 0.275209C31.5891 0.451247 31.6878 0.689905 31.6876 0.938684C31.6874 1.18746 31.5884 1.42598 31.4124 1.60177L12.5293 20.483C12.3535 20.6588 12.115 20.7575 11.8665 20.7575C11.6179 20.7575 11.3795 20.6588 11.2036 20.483L0.274271 9.55552C0.0984825 9.37948 -0.000175581 9.14082 2.34583e-07 8.89204C0.00017605 8.64326 0.0991717 8.40475 0.275209 8.22896C0.451247 8.05317 0.689905 7.95451 0.938684 7.95469C1.18746 7.95486 1.42598 8.05386 1.60177 8.22989L11.8655 18.4955Z" fill="#748B2B"/>
</svg>
